<svg width="93" height="92" viewBox="0 0 93 92" fill="none" xmlns="http://www.w3.org/2000/svg">
<rect x="0.876953" y="0.0712891" width="91.5618" height="91.5618" rx="45.7809" fill="#1B1F23"/>
<path fill-rule="evenodd" clip-rule="evenodd" d="M46.6117 21.0713C32.3932 21.0713 20.877 32.5418 20.877 46.7036C20.877 58.0459 28.2435 67.626 38.4731 71.0223C39.7598 71.2466 40.2423 70.4776 40.2423 69.8048C40.2423 69.196 40.2101 67.1775 40.2101 65.0308C33.7443 66.2163 32.0715 63.4608 31.5569 62.019C31.2673 61.282 30.0128 59.0072 28.919 58.3984C28.0183 57.9178 26.7316 56.7323 28.8869 56.7002C30.9135 56.6682 32.3611 58.5586 32.8436 59.3276C35.1597 63.2045 38.8591 62.1151 40.3388 61.4422C40.564 59.7761 41.2395 58.6547 41.9794 58.0139C36.2534 57.3731 30.2701 55.1623 30.2701 45.3579C30.2701 42.5704 31.2673 40.2635 32.9079 38.4692C32.6506 37.8284 31.7499 35.2011 33.1653 31.6767C33.1653 31.6767 35.3206 31.0038 40.2423 34.304C42.3011 33.7273 44.4885 33.4389 46.676 33.4389C48.8634 33.4389 51.0509 33.7273 53.1097 34.304C58.0314 30.9718 60.1867 31.6767 60.1867 31.6767C61.6021 35.2011 60.7014 37.8284 60.4441 38.4692C62.0846 40.2635 63.0819 42.5384 63.0819 45.3579C63.0819 55.1943 57.0664 57.3731 51.3404 58.0139C52.2733 58.8149 53.0775 60.3529 53.0775 62.7559C53.0775 66.1842 53.0453 68.9397 53.0453 69.8048C53.0453 70.4776 53.5279 71.2786 54.8146 71.0223C64.9798 67.626 72.3464 58.0139 72.3464 46.7036C72.3464 32.5418 60.8301 21.0713 46.6117 21.0713Z" fill="white"/>
</svg>
