<svg width="114" height="114" viewBox="0 0 114 114" fill="none" xmlns="http://www.w3.org/2000/svg">
<g clip-path="url(#clip0_101_707)">
<circle cx="56.7895" cy="57.3509" r="56.6004" fill="url(#paint0_linear_101_707)"/>
<path fill-rule="evenodd" clip-rule="evenodd" d="M72.041 19.6173H41.538C29.1413 19.6173 19.0559 29.7027 19.0559 42.0994V72.6025C19.0559 84.9991 29.1413 95.0845 41.538 95.0845H72.041C84.4377 95.0845 94.5231 84.9991 94.5231 72.6025V42.0994C94.523 29.7027 84.4376 19.6173 72.041 19.6173ZM86.9311 72.6025C86.9311 80.826 80.2645 87.4926 72.041 87.4926H41.538C33.3145 87.4926 26.6479 80.826 26.6479 72.6025V42.0994C26.6479 33.8758 33.3145 27.2093 41.538 27.2093H72.041C80.2645 27.2093 86.9311 33.8758 86.9311 42.0994V72.6025ZM56.7894 37.8324C46.0269 37.8324 37.2709 46.5883 37.2709 57.3507C37.2709 68.1131 46.0269 76.8692 56.7894 76.8692C67.552 76.8692 76.3079 68.1133 76.3079 57.3507C76.3079 46.5882 67.552 37.8324 56.7894 37.8324ZM56.7894 69.2774C50.2026 69.2774 44.8629 63.9378 44.8629 57.3509C44.8629 50.764 50.2027 45.4244 56.7894 45.4244C63.3763 45.4244 68.7159 50.764 68.7159 57.3509C68.7159 63.9376 63.3762 69.2774 56.7894 69.2774ZM81.0229 37.9791C81.0229 40.5621 78.9289 42.6561 76.3459 42.6561C73.7628 42.6561 71.6688 40.5621 71.6688 37.9791C71.6688 35.396 73.7628 33.302 76.3459 33.302C78.9289 33.302 81.0229 35.396 81.0229 37.9791Z" fill="white"/>
</g>
<defs>
<linearGradient id="paint0_linear_101_707" x1="23.183" y1="113.951" x2="74.4771" y2="0.75052" gradientUnits="userSpaceOnUse">
<stop stop-color="#FBD06F"/>
<stop offset="0.3" stop-color="#F16C2E"/>
<stop offset="0.6" stop-color="#C82E96"/>
<stop offset="1" stop-color="#4E6AD6"/>
</linearGradient>
<clipPath id="clip0_101_707">
<rect width="113.201" height="113.201" fill="white" transform="translate(0.189087 0.750519)"/>
</clipPath>
</defs>
</svg>
