<svg width="115" height="114" viewBox="0 0 115 114" fill="none" xmlns="http://www.w3.org/2000/svg">
<g clip-path="url(#clip0_101_706)">
<path d="M0.954468 57.3509C0.954468 26.0914 26.2953 0.750519 57.5549 0.750519C88.8144 0.750519 114.155 26.0914 114.155 57.3509C114.155 88.6105 88.8144 113.951 57.5549 113.951C26.2953 113.951 0.954468 88.6105 0.954468 57.3509Z" fill="#349DF0"/>
<path d="M57.8144 45.211L57.9525 47.4551L55.652 47.1803C47.2784 46.1269 39.9629 42.5547 33.7517 36.5551L30.7151 33.5782L29.933 35.7765C28.2766 40.6769 29.3348 45.8521 32.7855 49.3328C34.6259 51.2563 34.2118 51.5311 31.0372 50.3862C29.933 50.0198 28.9668 49.745 28.8748 49.8824C28.5527 50.203 29.6569 54.3706 30.5311 56.0194C31.7273 58.3093 34.1658 60.5534 36.8343 61.8815L39.0888 62.9349L36.4202 62.9807C33.8437 62.9807 33.7517 63.0265 34.0278 63.9883C34.9479 66.9651 38.5827 70.1252 42.6315 71.4992L45.484 72.4609L42.9995 73.9265C39.3188 76.0332 34.994 77.224 30.6691 77.3156C28.5987 77.3614 26.8964 77.5446 26.8964 77.6819C26.8964 78.1399 32.5095 80.7046 35.7761 81.7122C45.576 84.6891 57.2163 83.4067 65.958 78.3231C72.1693 74.7051 78.3805 67.5147 81.279 60.5534C82.8433 56.8437 84.4077 50.0656 84.4077 46.8139C84.4077 44.7072 84.5457 44.4324 87.1222 41.9135C88.6405 40.4479 90.0668 38.845 90.3428 38.387C90.8029 37.5168 90.7569 37.5168 88.4104 38.2954C84.4997 39.6694 83.9476 39.4862 85.8799 37.4252C87.3062 35.9597 89.0086 33.3034 89.0086 32.5248C89.0086 32.3874 88.3184 32.6164 87.5363 33.0286C86.7081 33.4866 84.8677 34.1736 83.4875 34.5857L81.003 35.3643L78.7485 33.853C77.5063 33.0286 75.758 32.1126 74.8378 31.8378C72.4913 31.1967 68.9026 31.2883 66.7862 32.021C61.0351 34.082 57.4004 39.3946 57.8144 45.211Z" fill="white"/>
</g>
<defs>
<clipPath id="clip0_101_706">
<rect width="113.201" height="113.201" fill="white" transform="translate(0.954468 0.750519)"/>
</clipPath>
</defs>
</svg>
